<svg xmlns="http://www.w3.org/2000/svg" viewBox="0 0 128 128" role="img" aria-label="LiraTime"><title>LiraTime</title><defs><linearGradient id="face" x1="0" y1="0" x2="1" y2="1"><stop stop-color="#1aa18a"/><stop offset="1" stop-color="#0e826e"/></linearGradient></defs><path fill="url(#face)" fill-rule="evenodd" d="M42 12h44l30 30v44l-30 30H42L12 86V42Zm8 20L32 50v28l18 18h28l18-18V50L78 32Z"/>
    <path fill="#1a9c84" d="M42 12h44l-8 20H50L32 50l-20-8Z"/>
    <path fill="#08705f" d="m86 12 30 30v44l-20-8V50L78 32Z"/>
    <path fill="#0b7967" d="m116 86-30 30H42l8-20h28l18-18Z"/>
    <path fill="#106c5d" d="m42 116-30-30V42l20 8v28l18 18Z"/>
    <path fill="url(#face)" d="M39 48v15l24 17 29-34-6-8-24 27Z"/>
    <path fill="#08705f" d="m39 48 23 17 1 15-24-17Z"/></svg>
